<?xml version="1.0" encoding="UTF-8"?>
<svg id="Layer_1" data-name="Layer 1" xmlns="http://www.w3.org/2000/svg" viewBox="0 0 787.44 631.67">
  <defs>
    <style>
      .cls-1 {
        fill: #eb5e28;
      }
    </style>
  </defs>
  <path class="cls-1" d="M565.93,523.13c-7.62,0-13.51,2.21-19.89-1.2-6.47-2.15-11.21-6.89-14.43-13.2l-96.3-188.97c-24.45,36.77-48.97,72.52-75.54,107.4-4.95,6.5-9.56,12.22-15.09,17.71-8.53,7.63-19.74,8.45-28.66.94-6.35-5.35-11.6-11.92-15.74-19.62l-41.13-76.43-120.47-220.35c-3.72-6.81-5.6-13.59-8.92-21.25l183.68-.06,13.74-.26c5.2-.1,8.29,3.27,10.45,7.69l95.65,195.59c2.38-39.6,15.79-79.22,44.53-106.81,32.58-30.14,69.73-29.54,104.42-2.87,18.22,19.31,30.68,42.05,42.13,65.92l122.63,255.68-181.08.11Z"/>
  <path class="cls-1" d="M212.41,523.56H47.9s-7.47.17-7.47.17l.49-128.3c.19-48.39,44.16-85.36,91.18-84.01,48.29,1.39,87.18,40.57,87.21,89.53l.07,122.87-6.97-.27Z"/>
</svg>