<?xml version="1.0" encoding="UTF-8"?>
<svg id="Layer_1" data-name="Layer 1" xmlns="http://www.w3.org/2000/svg" viewBox="0 0 787.44 314">
  <defs>
    <style>
      .cls-1 {
        fill: #eb5e28;
      }

      .cls-2 {
        fill: #8c8c8c;
      }
    </style>
  </defs>
  <path class="cls-1" d="M436.98,152.73h-13.22s.01,30.51.01,30.51h-24.67v-30.5h-8.89v-20.49h8.92c-.56-12.6,3.42-23.94,15.33-29.17,4.92-2.16,10.1-2.94,15.34-3.26h5.4s1.37.18,1.37.18v20.87c-5.29-.26-10.37.16-12.08,5.35-.59,1.98-.8,4.02-.7,6.08h13.2v20.43Z"/>
  <path class="cls-1" d="M503.1,132.3h24.68s0,80.21,0,80.21h-24.67s-.06-10.67-.06-10.67c-4.01,5.2-9.22,8.55-15.38,10.35-14.02,3.47-28.82-.87-35.72-14.12-2.82-5.42-4.19-11.35-4.19-17.58l-.03-47.81.32-.38h24.19s0,44.45,0,44.45c0,7.78,4.43,14.56,12.23,15.74,7.65,1.16,14.79-1.75,17.43-9.09.76-2.1,1.05-4.11,1.2-6.43v-44.68Z"/>
  <path class="cls-1" d="M354.36,132.3h24.68s0,80.21,0,80.21h-24.67s-.06-10.66-.06-10.66c-3.92,5.11-9,8.39-15.01,10.25-6.83,1.83-14.01,1.7-20.71-.64-12.97-4.52-19.13-16.93-19.59-30.27v-48.88s24.5,0,24.5,0v44.21c.12,2.48.39,4.64,1.2,6.89,1.7,4.72,5.65,8.14,10.62,9.01,7.24,1.28,14.47-1.15,17.43-8.01.97-2.24,1.59-4.61,1.59-7.19v-44.92Z"/>
  <polygon class="cls-1" points="683.07 132.3 683.07 148.89 658.45 148.89 658.46 132.68 658.78 132.3 683.07 132.3"/>
  <path class="cls-1" d="M683.07,156.55v55.95h-24.57s-.06-10.32-.06-10.32c.05-.4-3.52,3.48-3.52,3.48-8.33,7.4-19.72,9.32-30.33,6.4-14-3.86-20.96-16.56-21.5-30.64v-49.12s24.5,0,24.5,0v44.44c.13,7.57,4.08,14.18,11.57,15.62,7.41,1.42,14.92-1.12,17.8-8.27.88-2.18,1.48-4.47,1.48-6.93v-20.19s.01-.42.01-.42h24.62Z"/>
  <path class="cls-1" d="M590.18,212.5l-13.04-.02c-7.71,0-15.83-1.94-21.32-7.42-4.67-4.66-6.23-11.68-6.52-18.28v-34.06s-9.82,0-9.82,0v-20.43s9.82-.01,9.82-.01v-19.54s24.61,0,24.61,0v19.54s16.13,0,16.13,0v20.43s-16.14,0-16.14,0l.02,33.16c.19,3.17,2.17,5.51,5.38,5.55l10.87.15v20.9Z"/>
  <path class="cls-1" d="M244.2,211.36c-2.01,0-3.57.58-5.26-.32-1.71-.57-2.96-1.82-3.81-3.49l-25.45-49.95c-6.46,9.72-12.94,19.17-19.97,28.39-1.31,1.72-2.53,3.23-3.99,4.68-2.25,2.02-5.22,2.23-7.57.25-1.68-1.41-3.07-3.15-4.16-5.19l-10.87-20.2-31.84-58.24c-.98-1.8-1.48-3.59-2.36-5.62l48.55-.02,3.63-.07c1.37-.03,2.19.87,2.76,2.03l25.28,51.7c.63-10.47,4.17-20.94,11.77-28.23,8.61-7.97,18.43-7.81,27.6-.76,4.82,5.1,8.11,11.11,11.14,17.42l32.41,67.58-47.86.03Z"/>
  <path class="cls-1" d="M150.76,211.48h-43.49s-1.97.05-1.97.05l.13-33.91c.05-12.79,11.67-22.56,24.1-22.21,12.77.37,23.04,10.72,23.05,23.67l.02,32.48-1.84-.07Z"/>
  <polygon class="cls-1" points="683.07 132.3 683.07 148.89 658.45 148.89 658.46 132.68 658.78 132.3 683.07 132.3"/>
  <rect class="cls-1" x="399.18" y="191.37" width="24.47" height="22.82"/>
  <rect class="cls-1" x="658.36" y="132.3" width="24.63" height="17.04"/>
  <rect class="cls-1" x="658.45" y="156.55" width="24.62" height=".42"/>
  <g>
    <path class="cls-2" d="M112.69,225.67c-.77-1-1.61-1.73-3.42-1.73-1.67,0-2.8.75-2.8,2.25,0,1.71,1.3,2.3,3.4,2.67,2.78.48,4.47,1.48,4.47,4.15,0,1.88-1.25,4.03-4.84,4.03-2.34,0-4.05-.79-5.13-2.36l1.48-1.02c.94,1.11,1.77,1.75,3.65,1.75,2.36,0,3.05-1.08,3.05-2.32,0-1.36-.69-2.28-3.4-2.69-2.71-.42-4.47-1.71-4.47-4.22,0-2.07,1.36-3.88,4.66-3.88,2.3,0,3.74.77,4.76,2.36l-1.4,1Z"/>
    <path class="cls-2" d="M127.88,237.05c-3.19,0-5.22-1.92-5.22-6.57v-1.59c0-4.65,2.02-6.57,5.22-6.57s5.22,1.92,5.22,6.57v1.59c0,4.65-2.03,6.57-5.22,6.57ZM124.46,230.47c0,3.57,1.21,4.95,3.42,4.95s3.42-1.38,3.42-4.95v-1.59c0-3.57-1.21-4.95-3.42-4.95s-3.42,1.38-3.42,4.95v1.59Z"/>
    <path class="cls-2" d="M151.08,222.48v1.63h-4.38v12.78h-1.8v-12.78h-4.38v-1.63h10.56Z"/>
    <path class="cls-2" d="M167.92,222.48v1.63h-6.89v4.84h6.26v1.63h-6.26v6.3h-1.79v-14.4h8.68Z"/>
    <path class="cls-2" d="M180.33,236.88h-1.79l-3.51-14.4h1.88l2.61,11.31,3.17-11.31h1.77l3.24,11.38,2.61-11.38h1.88l-3.51,14.4h-1.82l-3.28-11.19-3.26,11.19Z"/>
    <path class="cls-2" d="M198.75,236.88l5.01-14.4h1.67l5.01,14.4h-1.9l-1.11-3.3h-5.68l-1.11,3.3h-1.9ZM202.32,231.96h4.55l-2.27-6.76-2.28,6.76Z"/>
    <path class="cls-2" d="M226.9,236.88l-3.01-6.07h-3.4v6.07h-1.79v-14.4h4.59c3.32,0,5.24,1.38,5.24,4.17,0,2.02-1,3.3-2.84,3.84l3.21,6.39h-2ZM223.29,229.18c2.44,0,3.44-.75,3.44-2.53s-1-2.55-3.44-2.55h-2.8v5.07h2.8Z"/>
    <path class="cls-2" d="M246.26,222.48v1.63h-6.89v4.51h6.26v1.63h-6.26v5.01h6.89v1.63h-8.68v-14.4h8.68Z"/>
  </g>
</svg>