<?xml version="1.0" encoding="UTF-8"?>
<svg xmlns="http://www.w3.org/2000/svg" viewBox="0 0 456 456" role="img" aria-label="MUFUTU">
  <rect width="456" height="456" fill="#E8612D" rx="80"/>
  <g transform="translate(20.2,7.6) scale(0.4082)">
    <path fill="#FFFFFF" d="M749.75,792.49c-9.28,0-16.46,2.69-24.22-1.46-7.88-2.62-13.65-8.39-17.57-16.08l-117.29-230.17c-29.77,44.78-59.65,88.33-92,130.81-6.03,7.92-11.65,14.88-18.38,21.57-10.39,9.29-24.05,10.3-34.9,1.15-7.73-6.52-14.12-14.52-19.17-23.9l-50.09-93.09-146.73-268.39c-4.54-8.3-6.83-16.55-10.87-25.89l223.72-.07,16.73-.32c6.33-.12,10.09,3.99,12.72,9.36l116.5,238.22c2.9-48.24,19.23-96.49,54.24-130.1,39.69-36.71,84.93-35.98,127.19-3.49,22.2,23.52,37.37,51.21,51.32,80.29l149.36,311.41-220.55.13Z"/>
    <path fill="#FFFFFF" d="M319.17,793.01H118.79s-9.1.21-9.1.21l.6-156.27c.23-58.93,53.79-103.97,111.06-102.32,58.82,1.69,106.18,49.41,106.22,109.05l.09,149.66-8.49-.33Z"/>
  </g>
</svg>
