<?xml version="1.0" encoding="UTF-8"?>
<svg xmlns="http://www.w3.org/2000/svg" viewBox="0 0 641.78 631.67" role="img" aria-label="MUFUTU">
  <path fill="#FFFFFF" d="M428.34,445.18c-4.75,0-8.43,1.38-12.41-.75-4.03-1.34-7-4.3-9-8.24l-60.09-117.91c-15.25,22.94-30.56,45.25-47.13,67.01-3.09,4.06-5.97,7.62-9.41,11.05-5.32,4.76-12.32,5.27-17.88.59-3.96-3.34-7.24-7.44-9.82-12.24l-25.66-47.69-75.17-137.49c-2.32-4.25-3.5-8.48-5.57-13.26l114.61-.04,8.57-.16c3.24-.06,5.17,2.04,6.52,4.8l59.68,122.04c1.48-24.71,9.85-49.43,27.79-66.65,20.33-18.81,43.51-18.43,65.16-1.79,11.37,12.05,19.15,26.24,26.29,41.13l76.52,159.54-112.99.07Z"/>
  <path fill="#FFFFFF" d="M207.76,445.45h-102.65s-4.66.11-4.66.11l.31-80.05c.12-30.19,27.56-53.26,56.9-52.42,30.13.86,54.4,25.31,54.41,55.87l.05,76.67-4.35-.17Z"/>
</svg>
