<?xml version="1.0" encoding="UTF-8"?>
<svg xmlns="http://www.w3.org/2000/svg" viewBox="0 0 456 456" role="img" aria-label="MUFUTU">
  <rect width="456" height="456" fill="#0F1419"/>
  <g transform="translate(24,168) scale(0.38)">
    <path fill="#E8612D" d="M378.91,314.09c-3.75,0-6.65,1.09-9.78-.59-3.18-1.06-5.52-3.39-7.1-6.5l-47.38-92.98c-12.03,18.09-24.1,35.68-37.17,52.84-2.44,3.2-4.71,6.01-7.42,8.71-4.2,3.75-9.71,4.16-14.1.46-3.12-2.63-5.71-5.86-7.75-9.65l-20.24-37.61-59.28-108.42c-1.83-3.35-2.76-6.69-4.39-10.46l90.38-.03,6.76-.13c2.56-.05,4.08,1.61,5.14,3.78l47.06,96.24c1.17-19.49,7.77-38.98,21.91-52.56,16.03-14.83,34.31-14.53,51.38-1.41,8.97,9.5,15.1,20.69,20.73,32.43l60.34,125.8-89.1.05Z"/>
    <path fill="#E8612D" d="M204.96,314.3h-80.95s-3.67.09-3.67.09l.24-63.13c.09-23.81,21.73-42,44.87-41.34,23.76.68,42.89,19.96,42.91,44.06l.04,60.46-3.43-.13Z"/>
    <path fill="#FFFFFF" d="M638.76,177.26h-17.24s.01,39.79.01,39.79h-.16v40.36h-31.91v-40.36h-.1v-39.77h-11.59v-26.72h11.63c-.73-16.43,4.46-31.22,19.99-38.04,6.42-2.82,13.17-3.83,20-4.25h7.04s1.79.23,1.79.23v27.21c-6.9-.34-13.52.21-15.75,6.98-.77,2.58-1.04,5.24-.91,7.93h17.21v26.64Z"/>
    <path fill="#FFFFFF" d="M724.98,150.61l32.18.02v104.58s-32.16,0-32.16,0l-.08-13.92c-5.23,6.78-12.02,11.15-20.05,13.5-18.28,4.53-37.58-1.14-46.58-18.42-3.68-7.06-5.46-14.8-5.46-22.92l-.04-62.35.42-.5h31.54s0,57.96,0,57.96c0,10.15,5.77,18.99,15.94,20.53,9.98,1.51,19.28-2.28,22.72-11.85.99-2.74,1.37-5.36,1.56-8.38v-58.26Z"/>
    <path fill="#FFFFFF" d="M531.02,150.61l32.18.02v104.58s-32.16,0-32.16,0l-.08-13.91c-5.12,6.66-11.74,10.94-19.58,13.36-8.9,2.39-18.27,2.21-27-.83-16.91-5.9-24.95-22.08-25.54-39.47v-63.74s31.95,0,31.95,0v57.65c.16,3.23.51,6.05,1.57,8.98,2.22,6.15,7.37,10.61,13.85,11.75,9.44,1.66,18.87-1.51,22.72-10.45,1.26-2.93,2.07-6.01,2.08-9.37l.02-58.57Z"/>
    <path fill="#FFFFFF" d="M959.66,182.24v72.96h-32.04s-.08-13.46-.08-13.46c.07-.52-4.59,4.54-4.59,4.54-10.86,9.65-25.71,12.15-39.55,8.35-18.26-5.03-27.33-21.59-28.04-39.95v-64.05s31.95,0,31.95,0v57.95c.17,9.87,5.32,18.49,15.09,20.37,9.66,1.85,19.46-1.46,23.21-10.78,1.15-2.84,1.93-5.83,1.93-9.04v-26.33s.01-.55.01-.55h32.1Z"/>
    <path fill="#FFFFFF" d="M838.52,255.2l-17-.02c-10.06-.01-20.64-2.53-27.8-9.67-6.09-6.07-8.12-15.23-8.5-23.83v-44.41s-12.81,0-12.81,0v-26.64s12.81-.01,12.81-.01v-25.48s32.09,0,32.09,0v25.48s21.04,0,21.04,0v26.65s-21.05,0-21.05,0l.02,43.24c.25,4.14,2.83,7.18,7.01,7.24l14.17.2v27.25Z"/>
    <path fill="#FFFFFF" d="M959.66,150.62l0,21.63-32.1,0,0.43-21.63,32.67,0Z"/>
    <path fill="#606060" d="M494.53,299.57c-1.01-1.31-2.1-2.26-4.47-2.26-2.18,0-3.65.98-3.65,2.94,0,2.24,1.69,3,4.44,3.49,3.63.63,5.83,1.94,5.83,5.43,0,2.45-1.64,5.26-6.33,5.26-3.05,0-5.29-1.04-6.71-3.08l1.94-1.34c1.23,1.45,2.32,2.29,4.77,2.29,3.08,0,3.98-1.42,3.98-3.03,0-1.77-.9-2.97-4.44-3.52-3.54-.54-5.83-2.24-5.83-5.51,0-2.7,1.77-5.07,6.08-5.07,3,0,4.88,1.01,6.22,3.08l-1.83,1.31Z"/>
    <path fill="#606060" d="M514.35,314.43c-4.17,0-6.82-2.51-6.82-8.59v-2.07c0-6.08,2.65-8.59,6.82-8.59s6.82,2.51,6.82,8.59v2.07c0,6.08-2.65,8.59-6.82,8.59ZM509.88,305.84c0,4.66,1.58,6.46,4.47,6.46s4.47-1.8,4.47-6.46v-2.07c0-4.66-1.58-6.46-4.47-6.46s-4.47,1.8-4.47,6.46v2.07Z"/>
    <path fill="#606060" d="M544.37,295.4v2.13h-9v6.33h8.18v2.13h-8.18v8.23h-2.34v-18.81h11.34Z"/>
    <path fill="#606060" d="M567.3,295.4v2.13h-5.73v16.69h-2.35v-16.69h-5.73v-2.13h13.8Z"/>
    <path fill="#606060" d="M582.82,314.22h-2.35l-4.58-18.81h2.45l3.41,14.78,4.14-14.78h2.32l4.23,14.86,3.41-14.86h2.45l-4.58,18.81h-2.37l-4.28-14.62-4.25,14.62Z"/>
    <path fill="#606060" d="M606.87,314.22l6.54-18.81h2.18l6.54,18.81h-2.48l-1.45-4.31h-7.42l-1.45,4.31h-2.48ZM611.53,307.78h5.94l-2.97-8.83-2.97,8.83Z"/>
    <path fill="#606060" d="M643.62,314.22l-3.93-7.94h-4.44v7.94h-2.34v-18.81h6c4.34,0,6.84,1.8,6.84,5.45,0,2.64-1.31,4.31-3.71,5.02l4.2,8.34h-2.62ZM638.91,304.15c3.19,0,4.5-.98,4.5-3.3s-1.31-3.33-4.5-3.33h-3.65v6.63h3.65Z"/>
    <path fill="#606060" d="M668.9,295.4v2.13h-9v5.89h8.18v2.13h-8.18v6.54h9v2.13h-11.34v-18.81h11.34Z"/>
  </g>
</svg>
